<svg xmlns="http://www.w3.org/2000/svg" x="0px" y="0px" width="250px" height="34.5px" viewBox="0 0 250 34.5">
  <g>
    <path fill="#F99E27" d="M6.1,33.3c-0.7,0.7-1.5,1-2.5,1s-1.8-0.4-2.5-1c-0.7-0.7-1-1.5-1-2.5v-27c0-1,0.4-1.8,1-2.5
      c0.7-0.7,1.5-1,2.5-1s1.8,0.4,2.5,1c0.7,0.7,1,1.5,1,2.5v27.1C7.2,31.8,6.8,32.6,6.1,33.3z"/>
    <path fill="#044A76" d="M66.8,1.2c0.7,0.7,1,1.5,1,2.5s-0.4,1.9-1,2.5c-0.7,0.7-1.5,1-2.5,1H43.7v23.5c0,1-0.4,1.9-1,2.5
      c-0.7,0.7-1.5,1-2.5,1c-1,0-1.9-0.4-2.5-1c-0.7-0.7-1-1.5-1-2.5V7.3H16.5c-0.9-0.1-1.7-0.5-2.3-1.2c-0.7-0.7-0.9-1.5-0.9-2.5
      c0-1,0.4-1.8,1-2.5c0.7-0.7,1.5-1,2.5-1h47.5C65.3,0.1,66.1,0.4,66.8,1.2z"/>
    <path fill="#044A76" d="M187.9,27.6L170,17.3L187.9,7c0.9-0.5,1.5-1.3,1.7-2.2c0.3-1,0.1-2-0.4-2.8c-0.5-0.9-1.3-1.5-2.3-1.7
      c-1-0.3-2-0.1-2.9,0.4l-21.7,12.5L140.6,0.6c-0.9-0.5-1.9-0.7-2.9-0.4s-1.8,0.8-2.3,1.7c-0.5,0.9-0.7,1.8-0.4,2.8
      c0.3,1,0.9,1.7,1.7,2.2l17.9,10.3l-17.9,10.3c-0.9,0.5-1.5,1.3-1.7,2.2c-0.3,1-0.1,2,0.4,2.8c0.5,0.9,1.3,1.5,2.3,1.7
      s2,0.1,2.9-0.4l21.7-12.5l21.7,12.5c0.9,0.5,1.9,0.7,2.9,0.4c1-0.2,1.8-0.8,2.3-1.7c0.5-0.9,0.7-1.8,0.4-2.8
      C189.3,28.9,188.7,28.1,187.9,27.6z"/>
    <g>
      <path fill="#F99E27" d="M125.1,7.3H77.5c-2,0-3.6-1.6-3.6-3.6l0,0c0-2,1.6-3.6,3.6-3.6h47.6c2,0,3.6,1.6,3.6,3.6l0,0
        C128.8,5.7,127.2,7.3,125.1,7.3z"/>
      <path fill="#F99E27" d="M125.1,34.4H77.5c-2,0-3.6-1.6-3.6-3.6l0,0c0-2,1.6-3.6,3.6-3.6h47.6c2,0,3.6,1.6,3.6,3.6l0,0
        C128.8,32.8,127.2,34.4,125.1,34.4z"/>
      <path fill="#F99E27" d="M125.1,20.8H77.5c-2,0-3.6-1.6-3.6-3.6l0,0c0-2,1.6-3.6,3.6-3.6h47.6c2,0,3.6,1.6,3.6,3.6l0,0
        C128.8,19.2,127.2,20.8,125.1,20.8z"/>
    </g>
    <path fill="#044A76" d="M249,1.2c0.7,0.7,1,1.5,1,2.5s-0.4,1.9-1,2.5c-0.7,0.7-1.5,1-2.5,1h-20.5v23.5c0,1-0.4,1.9-1,2.5
      c-0.7,0.7-1.5,1-2.5,1s-1.9-0.4-2.5-1c-0.7-0.7-1-1.5-1-2.5V7.3h-20c-0.9-0.1-1.7-0.5-2.3-1.2c-0.7-0.7-0.9-1.5-0.9-2.5
      c0-1,0.4-1.8,1-2.5c0.7-0.7,1.5-1,2.5-1h47.5C247.4,0.1,248.3,0.4,249,1.2z"/>
  </g>
</svg>